HIERARCHY
ROOT hip
{
	OFFSET 0.000000 0.000000 0.000000 
	CHANNELS 6 Xposition Yposition Zposition Xrotation Zrotation Yrotation
	JOINT abdomen
	{
		OFFSET 0.000000 3.402643 0.000000 
		CHANNELS 3 Xrotation Zrotation Yrotation
		JOINT chest
		{
			OFFSET 0.000000 8.438565 -0.680529 
			CHANNELS 3 Xrotation Zrotation Yrotation
			JOINT neck
			{
				OFFSET 0.000000 10.207942 -0.272212 
				CHANNELS 3 Xrotation Zrotation Yrotation
				JOINT head
				{
					OFFSET 0.000000 3.130431 0.000000 
					CHANNELS 3 Xrotation Zrotation Yrotation
					End Site
					{
						OFFSET 0.000000 3.130435 0.000000 
					}
				}
			}
			JOINT lCollar
			{
				OFFSET 3.470700 6.669187 -0.816635 
				CHANNELS 3 Zrotation Yrotation Xrotation
				JOINT lShldr
				{
					OFFSET 3.198488 0.000000 0.000000 
					CHANNELS 3 Zrotation Yrotation Xrotation
					JOINT lForeArm
					{
						OFFSET 10.139888 0.000000 0.000000 
						CHANNELS 3 Yrotation Zrotation Xrotation
						JOINT lHand
						{
							OFFSET 8.370511 0.000000 0.000000 
							CHANNELS 3 Zrotation Yrotation Xrotation
							End Site
							{
								OFFSET 4.083176 0.000000 0.000000 
							}
						}
					}
				}
			}
			JOINT rCollar
			{
				OFFSET -3.470700 6.669187 -0.816635 
				CHANNELS 3 Zrotation Yrotation Xrotation
				JOINT rShldr
				{
					OFFSET -3.198488 0.000000 0.000000 
					CHANNELS 3 Zrotation Yrotation Xrotation
					JOINT rForeArm
					{
						OFFSET -10.139888 0.000000 0.000000 
						CHANNELS 3 Yrotation Zrotation Xrotation
						JOINT rHand
						{
							OFFSET -8.370511 0.000000 0.000000 
							CHANNELS 3 Zrotation Yrotation Xrotation
							End Site
							{
								OFFSET -4.083176 0.000000 0.000000 
							}
						}
					}
				}
			}
		}
	}
	JOINT lThigh
	{
		OFFSET 5.308129 -1.633274 1.361059 
		CHANNELS 3 Xrotation Zrotation Yrotation
		JOINT lShin
		{
			OFFSET -2.041588 -20.007561 0.000000 
			CHANNELS 3 Xrotation Zrotation Yrotation
			JOINT lFoot
			{
				OFFSET 0.000000 -19.190928 -1.224953 
				CHANNELS 3 Xrotation Yrotation Zrotation
				End Site
				{
					OFFSET 0.000000 -2.449906 4.627600 
				}
			}
		}
	}
	JOINT rThigh
	{
		OFFSET -5.308129 -1.633274 1.361059 
		CHANNELS 3 Xrotation Zrotation Yrotation
		JOINT rShin
		{
			OFFSET 2.041588 -20.007561 0.000000 
			CHANNELS 3 Xrotation Zrotation Yrotation
			JOINT rFoot
			{
				OFFSET 0.000000 -19.190928 -1.224953 
				CHANNELS 3 Xrotation Yrotation Zrotation
				End Site
				{
					OFFSET 0.000000 -2.449906 4.627600 
				}
			}
		}
	}
}
MOTION
Frames: 20
Frame Time: 0.016667
0.261980 52.881069 0.242790 -11.290266 0.312307 -2.011742 30.758057 -2.187556 0.013496 1.014713 1.845456 -1.328582 -5.470083 4.137837 -0.329969 12.239292 -2.880969 9.376852 -12.927576 -9.194174 1.431211 -60.328327 16.044695 -24.711369 -25.365438 -5.000000 31.112228 -21.715298 2.491969 14.388350 17.739237 11.070448 2.580480 58.542870 -9.130042 -18.808147 22.955353 5.000000 31.030788 19.846943 -11.744637 -1.270660 18.972887 14.384730 4.462982 0.573600 -5.265743 -0.265367 -5.450432 12.091084 -8.126928 20.910254 -8.698419 -6.624706 0.624140 0.945498 -0.007725 -5.898782 -17.395533 9.113842 
0.271884 52.882484 0.251279 -11.281010 0.322061 -2.041038 30.757793 -2.178701 -0.015664 0.983491 1.884492 -1.387154 -5.509560 4.088099 -0.332297 12.265635 -2.908554 9.533386 -12.916642 -9.165862 1.423693 -60.227871 16.156603 -24.714315 -25.464903 -5.000000 31.228018 -21.791595 2.488859 14.488160 17.684902 11.156814 2.598454 58.545425 -9.165147 -18.810774 22.966774 5.000000 31.019659 19.864773 -11.738349 -1.262300 18.986584 14.351089 4.497107 0.592771 -5.263591 -0.267036 -5.428103 12.090227 -8.194796 20.921564 -8.718968 -6.589940 0.611408 0.930762 -0.047161 -5.893706 -17.390574 9.128977 
0.282636 52.881351 0.259768 -11.280928 0.312292 -2.089866 30.767466 -2.161902 -0.008609 0.983647 1.894262 -1.387159 -5.597451 4.088099 -0.332297 12.226708 -2.898674 9.562646 -12.885262 -9.118989 1.409791 -60.112877 16.217638 -24.663893 -25.587534 -5.000000 31.317745 -21.928726 2.569268 14.590790 17.645264 11.127699 2.593327 58.532909 -9.138041 -18.745367 22.972822 5.000000 31.025751 19.868797 -11.740885 -1.283628 19.008417 14.323792 4.561327 0.593148 -5.253989 -0.286670 -5.454149 12.104094 -8.175308 20.904676 -8.729445 -6.542202 0.630203 0.929923 -0.036500 -5.891990 -17.404770 9.133139 
0.293951 52.878521 0.268258 -11.280148 0.283004 -2.148459 30.796957 -2.152027 0.018672 1.004147 1.894278 -1.377409 -5.715445 4.105948 -0.344849 12.153658 -2.889622 9.494378 -12.843334 -9.053298 1.390612 -59.985664 16.232380 -24.571255 -25.745333 -5.000000 31.373234 -22.098030 2.684955 14.702508 17.609116 11.026635 2.557279 58.510658 -9.063881 -18.641132 22.964746 5.000000 31.054390 19.888742 -11.742403 -1.339248 19.025307 14.302767 4.617918 0.602945 -5.242489 -0.248613 -5.513218 12.056453 -8.159326 20.893864 -8.749203 -6.477415 0.641868 0.933565 -0.006726 -5.924896 -17.420380 9.155051 
0.304135 52.876537 0.277029 -11.279686 0.263476 -2.207053 30.807018 -2.138556 0.037141 1.024647 1.894293 -1.357894 -5.804148 4.123798 -0.357401 12.089368 -2.880400 9.445613 -12.810827 -9.018082 1.368023 -59.856075 16.265558 -24.503105 -25.896822 -5.000000 31.447882 -22.269297 2.792594 14.816895 17.583445 10.965289 2.523266 58.503071 -9.001777 -18.562965 22.962055 5.000000 31.063007 19.897051 -11.756630 -1.387234 19.080700 14.297025 4.688294 0.593878 -5.243534 -0.247775 -5.551003 12.014031 -8.153179 20.894274 -8.768532 -6.422397 0.650779 0.951137 -0.006517 -5.937239 -17.390924 9.156839 
0.309788 52.877956 0.286934 -11.300545 0.292744 -2.246114 30.806746 -2.155860 0.028742 1.014078 1.904047 -1.377414 -5.784616 4.123798 -0.357401 12.063535 -2.909052 9.474869 -12.802324 -9.056405 1.375539 -59.727062 16.391424 -24.531013 -26.035257 -5.000000 31.580093 -22.443657 2.806227 14.937207 17.576376 11.012268 2.536390 58.498569 -9.028413 -18.582386 22.952662 5.000000 31.039406 19.886070 -11.796879 -1.389631 19.130230 14.248457 4.719316 0.574329 -5.245875 -0.255866 -5.547281 12.034072 -8.165305 20.907598 -8.808531 -6.382375 0.649825 0.940261 -0.045493 -5.926545 -17.371956 9.155621 
0.315441 52.879375 0.296838 -11.321054 0.312251 -2.285176 30.806253 -2.174086 0.019943 1.003501 1.913801 -1.396935 -5.774790 4.114143 -0.355940 12.045820 -2.947330 9.504623 -12.804046 -9.104020 1.387762 -59.586460 16.516628 -24.544815 -26.172987 -5.000000 31.714621 -22.618042 2.820623 15.057564 17.569891 11.068560 2.554265 58.501709 -9.046871 -18.593634 22.949303 5.000000 31.021896 19.861485 -11.853176 -1.373372 19.171177 14.194428 4.750475 0.554298 -5.218732 -0.264354 -5.524596 12.018029 -8.186256 20.940168 -8.855316 -6.365602 0.631182 0.941104 -0.046380 -5.894232 -17.338842 9.152146 
0.316570 52.878521 0.306741 -11.321333 0.322014 -2.265644 30.816450 -2.186872 0.003506 1.002518 1.933318 -1.426219 -5.833505 4.133454 -0.358861 12.022657 -2.956623 9.543631 -12.794660 -9.073523 1.389718 -59.454353 16.568428 -24.500559 -26.334558 -5.000000 31.800743 -22.794415 2.915748 15.209249 17.550705 11.047860 2.554877 58.485443 -9.029706 -18.557878 22.917728 5.000000 31.049469 19.877010 -11.833810 -1.401004 19.179071 14.199554 4.710309 0.564692 -5.236837 -0.235655 -5.529523 12.043610 -8.195124 20.967428 -8.845027 -6.403444 0.610477 0.919687 -0.047049 -5.898890 -17.315344 9.192734 
0.316565 52.877106 0.316642 -11.321549 0.331778 -2.236347 30.826307 -2.209311 -0.017697 1.001689 1.962605 -1.455509 -5.911752 4.152765 -0.361782 11.997345 -2.975456 9.592894 -12.783408 -9.035665 1.380146 -59.324352 16.601147 -24.429129 -26.498905 -5.000000 31.874495 -22.977041 3.026923 15.365664 17.528557 11.011478 2.538722 58.465736 -9.002386 -18.505795 22.872059 5.000000 31.094002 19.896360 -11.807786 -1.446604 19.185608 14.206993 4.693231 0.554283 -5.237963 -0.234829 -5.561494 12.050376 -8.168768 21.004683 -8.837880 -6.460835 0.590650 0.909250 -0.038052 -5.886939 -17.316669 9.217484 
0.315997 52.876255 0.325978 -11.321059 0.322024 -2.216817 30.826283 -2.205476 -0.027768 0.990914 1.982122 -1.475026 -5.950937 4.172076 -0.364702 11.991021 -2.994196 9.651915 -12.752766 -9.007794 1.369141 -59.210854 16.642363 -24.356228 -26.651661 -5.000000 31.933811 -23.134827 3.121672 15.547686 17.517488 10.993285 2.531589 58.443245 -9.006751 -18.481293 22.843857 5.000000 31.136316 19.902117 -11.797814 -1.473569 19.191614 14.215158 4.676433 0.543762 -5.248619 -0.214362 -5.581810 12.045282 -8.158744 21.023952 -8.818681 -6.466100 0.564336 0.902821 -0.039226 -5.883799 -17.355389 9.221091 
0.314583 52.876255 0.334465 -11.320407 0.302504 -2.236349 30.815603 -2.187500 -0.000088 0.971045 1.982116 -1.465255 -5.931468 4.181732 -0.366162 11.996072 -3.003299 9.710424 -12.713279 -9.008723 1.365040 -59.125519 16.693075 -24.287096 -26.769676 -5.000000 31.980024 -23.266802 3.163704 15.750726 17.506897 11.015279 2.526857 58.427017 -9.048050 -18.479242 22.824377 5.000000 31.176115 19.876520 -11.810272 -1.494233 19.231764 14.245131 4.705817 0.524524 -5.270087 -0.202678 -5.591292 12.021306 -8.147118 21.031689 -8.798140 -6.431175 0.562237 0.881124 -0.048776 -5.892233 -17.360958 9.249578 
0.313168 52.876255 0.342950 -11.319693 0.282986 -2.246115 30.804945 -2.169514 0.027597 0.941072 1.982104 -1.475009 -5.911231 4.183193 -0.356532 12.009212 -3.022021 9.769448 -12.673793 -9.009649 1.360938 -59.048386 16.747997 -24.215742 -26.890789 -5.000000 32.017670 -23.407667 3.213281 15.962053 17.509853 11.030968 2.543636 58.410767 -9.089350 -18.478706 22.804888 5.000000 31.215931 19.842884 -11.819697 -1.519877 19.247114 14.258116 4.718567 0.516661 -5.290921 -0.230828 -5.604037 12.018044 -8.126719 21.052271 -8.798496 -6.411341 0.562203 0.881088 -0.039006 -5.897882 -17.357788 9.283951 
0.313167 52.874847 0.347193 -11.290679 0.292748 -2.226584 30.795731 -2.173219 0.016163 0.941748 1.982116 -1.455490 -5.970906 4.239665 -0.374924 11.943271 -3.030661 9.877230 -12.603677 -8.982676 1.347448 -59.011215 16.713530 -24.105864 -26.994488 -5.000000 31.966982 -23.529812 3.214386 16.149696 17.495930 10.966205 2.520223 58.383411 -9.070115 -18.433258 22.783329 5.000000 31.290524 19.867434 -11.765369 -1.587791 19.227161 14.267554 4.689767 0.525480 -5.280228 -0.231802 -5.626180 12.017838 -8.134136 21.014359 -8.789289 -6.438433 0.582477 0.891202 -0.028450 -5.912776 -17.378704 9.260833 
0.313167 52.873425 0.351438 -11.251567 0.292749 -2.216818 30.776655 -2.180358 0.013868 0.942086 1.982122 -1.445730 -6.039651 4.297598 -0.383685 11.877812 -3.039376 9.974744 -12.533576 -8.955676 1.334022 -58.964840 16.682947 -23.993202 -27.101524 -5.000000 31.908096 -23.654678 3.207737 16.341290 17.472679 10.911170 2.500237 58.356377 -9.042536 -18.392954 22.750311 5.000000 31.379091 19.881638 -11.702110 -1.648376 19.172403 14.273645 4.659405 0.535117 -5.289065 -0.232504 -5.605502 12.045215 -8.091406 20.983171 -8.788678 -6.458215 0.581683 0.891720 -0.028481 -5.926150 -17.362457 9.267338 
0.311469 52.872864 0.357379 -11.251516 0.292751 -2.207052 30.775856 -2.197790 0.026993 0.913132 2.001662 -1.435974 -6.020316 4.326564 -0.388065 11.867122 -3.057320 10.111781 -12.502795 -8.968004 1.323643 -58.943188 16.691885 -23.940481 -27.188583 -5.000000 31.838882 -23.710993 3.246327 16.435106 17.472013 10.932732 2.496851 58.325081 -9.091851 -18.410732 22.738903 5.000000 31.390238 19.899729 -11.639339 -1.680618 19.177601 14.266435 4.646726 0.535110 -5.279250 -0.232636 -5.616364 12.092729 -8.102102 20.993773 -8.788931 -6.458267 0.593819 0.895440 -0.028010 -5.932764 -17.383213 9.267131 
0.308638 52.872864 0.364453 -11.261283 0.292751 -2.207052 30.784679 -2.212709 0.030571 0.883681 2.030961 -1.435978 -5.941524 4.337682 -0.379897 11.882318 -3.084554 10.278595 -12.485050 -9.025662 1.334115 -58.927525 16.724260 -23.909796 -27.252359 -5.000000 31.770966 -23.737835 3.306699 16.475786 17.477116 11.016565 2.522771 58.300037 -9.178195 -18.450830 22.738308 5.000000 31.364082 19.921780 -11.577071 -1.682513 19.191717 14.263930 4.638219 0.534195 -5.279202 -0.222888 -5.637101 12.096498 -8.120454 21.008837 -8.777145 -6.435971 0.593385 0.883999 -0.027875 -5.920470 -17.443592 9.251580 
0.306092 52.872864 0.370960 -11.271049 0.292751 -2.207052 30.783966 -2.226712 0.034553 0.844988 2.050501 -1.426223 -5.882260 4.348799 -0.371730 11.888650 -3.111928 10.425384 -12.478034 -9.061918 1.350835 -58.910519 16.743225 -23.873178 -27.313770 -5.000000 31.686544 -23.751181 3.373611 16.490717 17.473009 11.079269 2.552572 58.282661 -9.256391 -18.485830 22.731688 5.000000 31.331812 19.926630 -11.537579 -1.649782 19.226366 14.267200 4.629777 0.525475 -5.280090 -0.222047 -5.645935 12.108258 -8.135726 21.032351 -8.768921 -6.393591 0.581179 0.880516 -0.047892 -5.909035 -17.462097 9.255119 
0.304678 52.872864 0.375205 -11.261556 0.302514 -2.187521 30.775009 -2.218249 0.018331 0.835572 2.050507 -1.406698 -5.872622 4.368110 -0.374650 11.856562 -3.091550 10.542397 -12.448415 -9.062608 1.347731 -58.922226 16.696129 -23.819538 -27.334831 -5.000000 31.578188 -23.787697 3.454861 16.448595 17.462507 11.070388 2.548322 58.292046 -9.253295 -18.487402 22.715696 5.000000 31.273083 19.898401 -11.589459 -1.560637 19.218128 14.277800 4.611493 0.506996 -5.301254 -0.200595 -5.644401 12.120683 -8.132113 21.022789 -8.788996 -6.368698 0.582991 0.902692 -0.057896 -5.925139 -17.431070 9.258131 
0.303265 52.872864 0.379449 -11.241921 0.302518 -2.167990 30.755945 -2.214133 0.010842 0.826506 2.050518 -1.367648 -5.862919 4.377765 -0.376110 11.825079 -3.071271 10.650184 -12.418795 -9.063293 1.344628 -58.923668 16.661364 -23.758114 -27.343636 -5.000000 31.487888 -23.814358 3.537233 16.415287 17.452578 11.070821 2.546950 58.299374 -9.253407 -18.474121 22.708357 5.000000 31.214603 19.870054 -11.641280 -1.471464 19.201614 14.283066 4.603382 0.506227 -5.291803 -0.220244 -5.633919 12.101767 -8.130424 21.016956 -8.776768 -6.356265 0.595231 0.906599 -0.086732 -5.945417 -17.421951 9.259847 
0.302984 52.871735 0.385957 -11.251367 0.292757 -2.177756 30.765558 -2.186308 0.043956 0.826314 2.040748 -1.377408 -5.892280 4.387421 -0.377571 11.830386 -3.060491 10.767199 -12.378302 -9.035591 1.334290 -58.964909 16.591904 -23.686417 -27.335955 -5.000000 31.347589 -23.833260 3.583053 16.428984 17.412296 11.063232 2.538595 58.327972 -9.223866 -18.432926 22.680845 5.000000 31.169735 19.895235 -11.685217 -1.412118 19.219482 14.292450 4.607108 0.494730 -5.293045 -0.229174 -5.646043 12.147559 -8.097049 21.019264 -8.768028 -6.313783 0.602024 0.902140 -0.086316 -5.938702 -17.486937 9.229539 
